<svg width="167" height="100" xmlns="http://www.w3.org/2000/svg" xml:space="preserve" version="1.1">

 <g>
  <title>Layer 1</title>
  <path id="svg_2" fill="#F5C518" d="m25.04039,0l116.87331,0c13.83132,0 25.0404,6.58397 25.0404,14.70818l0,68.64881c0,8.12421 -11.20908,14.70818 -25.0404,14.70818l-116.87331,0c-13.83132,0 -25.0404,-6.58397 -25.0404,-14.70818l0,-68.64881c0,-8.12421 11.20908,-14.70818 25.0404,-14.70818l0,0z" class="st0"/>
  <path id="svg_3" d="m36.02463,73.8682l0,-48.63408l-12.49352,0l0,48.63408l12.49352,0l0,0zm26.54873,-48.63408l-2.81104,22.62835l-1.56169,-12.15852l-1.56169,-10.46984l-15.6169,0l0,48.63408l10.61949,0l0,-32.08498l4.37273,32.08498l7.80845,0l4.06039,-32.76045l0,32.76045l10.61949,0l0,-48.63408l-15.92924,0l0,0zm20.92665,48.63408l0,-48.63408l19.36496,0c4.68507,0 8.12079,3.7151 8.12079,8.44342l0,31.74724c0,4.72831 -3.43572,8.44342 -8.12079,8.44342l-19.36496,0l0,0zm14.67989,-39.85292l-2.81104,-0.33774l0,31.74724c1.56169,0 2.81104,-0.33774 3.12338,-1.01321c0.62468,-0.67547 0.62468,-2.70189 0.62468,-6.07926l0,-18.91325l0,-4.05284l-0.93701,-1.35095l0,0l0,0zm36.23121,3.37737l0.93701,0c4.37273,0 8.12079,3.7151 8.12079,8.44342l0,19.58872c0,4.72831 -3.74806,8.44342 -8.12079,8.44342l-0.93701,0c-2.4987,0 -4.99741,-1.35095 -6.5591,-3.7151l-0.62468,3.03963l-11.24417,0l0,-47.9586l11.86884,0l0,15.53589c1.56169,-2.02642 4.06039,-3.37737 6.5591,-3.37737l0,0zm-2.4987,23.64156l0,-11.48305l-0.31234,-3.7151c-0.31234,-0.67547 -1.24935,-1.01321 -1.87403,-1.01321c-0.62468,0 -1.56169,0.33774 -1.87403,1.01321l0,19.25099c0.31234,0.67547 1.24935,1.01321 1.87403,1.01321c0.62468,0 1.87403,-0.33774 1.87403,-1.01321l0.31234,-4.05284l0,0z"/>
  <text transform="matrix(1, 0, 0, 1, 0, 0)" font-style="normal" font-weight="bold" xml:space="preserve" text-anchor="start" font-family="monospace" font-size="24" stroke-width="0" fill="#000000" id="svg_7" y="94.07407" x="113.90052">API</text>
 </g>
</svg>